<svg xmlns="http://www.w3.org/2000/svg" xmlns:xlink="http://www.w3.org/1999/xlink" width="151" zoomAndPan="magnify" viewBox="0 0 113.25 111.749997" height="149" preserveAspectRatio="xMidYMid meet" version="1.0"><defs><clipPath id="6a1cd3e7b1"><path d="M 18 16 L 102 16 L 102 89 L 18 89 Z M 18 16 " clip-rule="nonzero"/></clipPath><clipPath id="8d1a79c569"><path d="M 43.722656 110.921875 L 0.652344 44.726562 L 69.347656 0.0273438 L 112.417969 66.226562 Z M 43.722656 110.921875 " clip-rule="nonzero"/></clipPath><clipPath id="9cf8364efe"><path d="M 43.722656 110.921875 L 0.652344 44.726562 L 69.347656 0.0273438 L 112.417969 66.226562 Z M 43.722656 110.921875 " clip-rule="nonzero"/></clipPath><clipPath id="00605a35ee"><path d="M 37.78125 33 L 78.761719 33 L 78.761719 75.800781 L 37.78125 75.800781 Z M 37.78125 33 " clip-rule="nonzero"/></clipPath><clipPath id="eb8fa3f7c0"><path d="M 14 43 L 31 43 L 31 50 L 14 50 Z M 14 43 " clip-rule="nonzero"/></clipPath><clipPath id="32d3a4f167"><path d="M 21.808594 23.375 L 39.761719 37.902344 L 25.234375 55.859375 L 7.28125 41.328125 Z M 21.808594 23.375 " clip-rule="nonzero"/></clipPath><clipPath id="ee0010a491"><path d="M 21.808594 23.375 L 39.761719 37.902344 L 25.234375 55.859375 L 7.28125 41.328125 Z M 21.808594 23.375 " clip-rule="nonzero"/></clipPath><clipPath id="4ff3429939"><path d="M 16 35 L 33 35 L 33 44 L 16 44 Z M 16 35 " clip-rule="nonzero"/></clipPath><clipPath id="1739e9b768"><path d="M 21.808594 23.375 L 39.761719 37.902344 L 25.234375 55.859375 L 7.28125 41.328125 Z M 21.808594 23.375 " clip-rule="nonzero"/></clipPath><clipPath id="c9874b7ddb"><path d="M 21.808594 23.375 L 39.761719 37.902344 L 25.234375 55.859375 L 7.28125 41.328125 Z M 21.808594 23.375 " clip-rule="nonzero"/></clipPath><clipPath id="29e0490076"><path d="M 18 27 L 34 27 L 34 36 L 18 36 Z M 18 27 " clip-rule="nonzero"/></clipPath><clipPath id="142dfc5826"><path d="M 21.808594 23.375 L 39.761719 37.902344 L 25.234375 55.859375 L 7.28125 41.328125 Z M 21.808594 23.375 " clip-rule="nonzero"/></clipPath><clipPath id="857c8ab6a8"><path d="M 21.808594 23.375 L 39.761719 37.902344 L 25.234375 55.859375 L 7.28125 41.328125 Z M 21.808594 23.375 " clip-rule="nonzero"/></clipPath></defs><g clip-path="url(#6a1cd3e7b1)"><g clip-path="url(#8d1a79c569)"><g clip-path="url(#9cf8364efe)"><path fill="#a8c082" d="M 33.332031 24.144531 C 27.378906 29.859375 23.871094 37.507812 21.382812 45.269531 C 19.195312 52.117188 17.957031 59.355469 18.855469 66.539062 C 19.277344 70.023438 20.035156 73.773438 21.792969 76.832031 C 23.542969 79.878906 26.058594 82.464844 28.996094 84.390625 C 31.960938 86.355469 35.433594 87.644531 38.960938 88.003906 C 42.953125 88.425781 46.871094 87.5625 50.777344 86.785156 C 59.652344 85 68.769531 85.191406 77.679688 83.464844 C 85.5625 81.9375 93.472656 78.554688 98.242188 71.769531 C 102.78125 65.289062 102.566406 57.214844 99.636719 50.09375 C 96.265625 41.960938 89.914062 35.417969 82.730469 30.480469 C 79.136719 27.996094 75.300781 25.882812 71.382812 23.9375 C 67.503906 22.023438 63.574219 20.125 59.527344 18.609375 C 55.863281 17.234375 52.058594 16.417969 48.140625 16.894531 C 44.421875 17.335938 40.828125 18.726562 37.667969 20.742188 C 36.09375 21.75 34.660156 22.914062 33.332031 24.144531 " fill-opacity="1" fill-rule="nonzero"/></g></g></g><g clip-path="url(#00605a35ee)"><path fill="#ffffff" d="M 64.839844 61.277344 L 69.4375 54.976562 C 69.933594 54.292969 70.367188 53.570312 70.734375 52.808594 C 71.097656 52.042969 71.390625 51.253906 71.613281 50.4375 C 71.832031 49.621094 71.976562 48.792969 72.042969 47.949219 C 72.109375 47.105469 72.101562 46.265625 72.015625 45.421875 C 71.925781 44.582031 71.761719 43.757812 71.523438 42.945312 C 71.285156 42.132812 70.972656 41.351562 70.589844 40.597656 C 70.207031 39.84375 69.757812 39.128906 69.246094 38.460938 C 68.730469 37.789062 68.160156 37.167969 67.53125 36.601562 C 66.902344 36.035156 66.230469 35.53125 65.507812 35.089844 C 64.785156 34.648438 64.03125 34.273438 63.242188 33.972656 C 62.453125 33.667969 61.644531 33.441406 60.8125 33.285156 C 59.980469 33.132812 59.140625 33.054688 58.296875 33.054688 C 57.449219 33.054688 56.609375 33.132812 55.78125 33.285156 C 54.949219 33.441406 54.136719 33.667969 53.347656 33.972656 C 52.558594 34.273438 51.804688 34.648438 51.082031 35.089844 C 50.363281 35.53125 49.6875 36.035156 49.058594 36.601562 C 48.433594 37.167969 47.859375 37.789062 47.347656 38.460938 C 46.832031 39.128906 46.382812 39.84375 46 40.597656 C 45.617188 41.351562 45.304688 42.132812 45.066406 42.945312 C 44.828125 43.757812 44.664062 44.582031 44.578125 45.421875 C 44.488281 46.265625 44.480469 47.105469 44.546875 47.949219 C 44.617188 48.792969 44.757812 49.621094 44.980469 50.4375 C 45.199219 51.253906 45.492188 52.042969 45.859375 52.808594 C 46.222656 53.570312 46.65625 54.292969 47.152344 54.976562 L 51.753906 61.277344 C 44.113281 62.128906 37.78125 64.492188 37.78125 68.273438 C 37.78125 73.101562 48.101562 75.625 58.296875 75.625 C 68.488281 75.625 78.808594 73.101562 78.808594 68.273438 C 78.808594 64.492188 72.480469 62.125 64.839844 61.277344 Z M 49.03125 53.605469 C 48.617188 53.039062 48.257812 52.4375 47.953125 51.804688 C 47.648438 51.167969 47.40625 50.511719 47.222656 49.832031 C 47.039062 49.15625 46.917969 48.464844 46.863281 47.761719 C 46.804688 47.0625 46.8125 46.363281 46.886719 45.664062 C 46.960938 44.964844 47.09375 44.277344 47.292969 43.601562 C 47.492188 42.925781 47.75 42.277344 48.070312 41.648438 C 48.390625 41.023438 48.761719 40.429688 49.191406 39.871094 C 49.617188 39.3125 50.09375 38.796875 50.613281 38.328125 C 51.136719 37.855469 51.699219 37.4375 52.296875 37.070312 C 52.898438 36.703125 53.523438 36.390625 54.179688 36.140625 C 54.835938 35.886719 55.511719 35.695312 56.203125 35.566406 C 56.894531 35.441406 57.59375 35.375 58.296875 35.375 C 59 35.375 59.695312 35.441406 60.386719 35.566406 C 61.078125 35.695312 61.753906 35.886719 62.410156 36.140625 C 63.066406 36.390625 63.695312 36.703125 64.292969 37.070312 C 64.894531 37.4375 65.453125 37.855469 65.976562 38.328125 C 66.5 38.796875 66.972656 39.3125 67.402344 39.871094 C 67.828125 40.429688 68.203125 41.023438 68.519531 41.648438 C 68.839844 42.277344 69.097656 42.925781 69.296875 43.601562 C 69.496094 44.277344 69.632812 44.964844 69.703125 45.664062 C 69.777344 46.363281 69.785156 47.0625 69.726562 47.761719 C 69.671875 48.464844 69.550781 49.15625 69.371094 49.832031 C 69.1875 50.511719 68.941406 51.167969 68.636719 51.804688 C 68.335938 52.4375 67.976562 53.039062 67.5625 53.605469 L 58.296875 66.304688 Z M 58.296875 73.304688 C 47.191406 73.304688 40.105469 70.324219 40.105469 68.273438 C 40.105469 66.546875 45.136719 64.167969 53.34375 63.457031 L 57.355469 68.957031 C 57.464844 69.109375 57.605469 69.222656 57.769531 69.308594 C 57.933594 69.390625 58.109375 69.433594 58.296875 69.433594 C 58.480469 69.433594 58.65625 69.390625 58.820312 69.308594 C 58.988281 69.222656 59.125 69.109375 59.234375 68.957031 L 63.246094 63.457031 C 71.457031 64.167969 76.484375 66.546875 76.484375 68.273438 C 76.484375 70.324219 69.398438 73.304688 58.296875 73.304688 Z M 58.296875 73.304688 " fill-opacity="1" fill-rule="nonzero"/></g><path fill="#ffffff" d="M 65.0625 46.847656 C 65.0625 46.402344 65.019531 45.960938 64.933594 45.527344 C 64.847656 45.089844 64.71875 44.667969 64.546875 44.257812 C 64.378906 43.84375 64.167969 43.457031 63.921875 43.085938 C 63.675781 42.714844 63.394531 42.375 63.082031 42.0625 C 62.765625 41.746094 62.425781 41.464844 62.054688 41.21875 C 61.6875 40.972656 61.296875 40.761719 60.886719 40.59375 C 60.476562 40.421875 60.050781 40.296875 59.617188 40.207031 C 59.179688 40.121094 58.738281 40.078125 58.296875 40.078125 C 57.851562 40.078125 57.410156 40.121094 56.976562 40.207031 C 56.539062 40.296875 56.117188 40.421875 55.707031 40.59375 C 55.296875 40.761719 54.90625 40.972656 54.535156 41.21875 C 54.167969 41.464844 53.824219 41.746094 53.511719 42.058594 C 53.195312 42.375 52.914062 42.714844 52.667969 43.085938 C 52.421875 43.457031 52.214844 43.84375 52.042969 44.257812 C 51.875 44.667969 51.746094 45.089844 51.65625 45.523438 C 51.570312 45.960938 51.527344 46.402344 51.527344 46.84375 C 51.527344 47.289062 51.570312 47.730469 51.65625 48.164062 C 51.746094 48.601562 51.875 49.023438 52.042969 49.433594 C 52.214844 49.847656 52.421875 50.234375 52.667969 50.605469 C 52.914062 50.976562 53.195312 51.316406 53.511719 51.632812 C 53.824219 51.945312 54.167969 52.226562 54.535156 52.472656 C 54.90625 52.71875 55.296875 52.929688 55.707031 53.097656 C 56.117188 53.269531 56.539062 53.398438 56.976562 53.484375 C 57.410156 53.570312 57.851562 53.613281 58.296875 53.613281 C 58.738281 53.613281 59.179688 53.570312 59.613281 53.480469 C 60.050781 53.394531 60.472656 53.265625 60.882812 53.097656 C 61.292969 52.925781 61.683594 52.71875 62.054688 52.46875 C 62.421875 52.222656 62.765625 51.941406 63.078125 51.628906 C 63.394531 51.316406 63.671875 50.972656 63.921875 50.605469 C 64.167969 50.234375 64.375 49.84375 64.546875 49.433594 C 64.714844 49.023438 64.84375 48.601562 64.933594 48.164062 C 65.019531 47.730469 65.0625 47.289062 65.0625 46.847656 Z M 53.851562 46.847656 C 53.851562 46.554688 53.878906 46.265625 53.933594 45.980469 C 53.992188 45.691406 54.078125 45.414062 54.1875 45.144531 C 54.300781 44.875 54.4375 44.617188 54.597656 44.375 C 54.761719 44.132812 54.945312 43.910156 55.152344 43.703125 C 55.359375 43.496094 55.582031 43.3125 55.824219 43.148438 C 56.070312 42.988281 56.324219 42.851562 56.59375 42.738281 C 56.863281 42.628906 57.140625 42.542969 57.429688 42.484375 C 57.714844 42.429688 58.003906 42.402344 58.296875 42.402344 C 58.585938 42.402344 58.875 42.429688 59.164062 42.484375 C 59.449219 42.542969 59.726562 42.628906 59.996094 42.738281 C 60.265625 42.851562 60.523438 42.988281 60.765625 43.148438 C 61.007812 43.3125 61.230469 43.496094 61.4375 43.703125 C 61.644531 43.910156 61.828125 44.132812 61.992188 44.375 C 62.152344 44.617188 62.289062 44.875 62.402344 45.144531 C 62.515625 45.414062 62.597656 45.691406 62.65625 45.980469 C 62.710938 46.265625 62.742188 46.554688 62.742188 46.847656 C 62.742188 47.136719 62.710938 47.425781 62.65625 47.714844 C 62.597656 48 62.515625 48.277344 62.402344 48.546875 C 62.289062 48.816406 62.152344 49.074219 61.992188 49.316406 C 61.828125 49.558594 61.644531 49.78125 61.4375 49.988281 C 61.230469 50.195312 61.007812 50.378906 60.765625 50.542969 C 60.523438 50.703125 60.265625 50.839844 59.996094 50.953125 C 59.726562 51.066406 59.449219 51.148438 59.164062 51.207031 C 58.875 51.261719 58.585938 51.292969 58.296875 51.292969 C 58.003906 51.289062 57.714844 51.261719 57.429688 51.203125 C 57.140625 51.148438 56.863281 51.0625 56.59375 50.953125 C 56.324219 50.839844 56.070312 50.703125 55.828125 50.539062 C 55.585938 50.378906 55.359375 50.195312 55.152344 49.988281 C 54.945312 49.78125 54.761719 49.558594 54.601562 49.3125 C 54.4375 49.070312 54.300781 48.816406 54.191406 48.546875 C 54.078125 48.277344 53.992188 48 53.9375 47.710938 C 53.878906 47.425781 53.851562 47.136719 53.851562 46.847656 Z M 53.851562 46.847656 " fill-opacity="1" fill-rule="nonzero"/><g clip-path="url(#eb8fa3f7c0)"><g clip-path="url(#32d3a4f167)"><g clip-path="url(#ee0010a491)"><path fill="#f4aeae" d="M 26.597656 45.308594 C 27.851562 45.566406 29.242188 45.914062 29.910156 47.003906 C 30.234375 47.59375 30.539062 48.984375 29.941406 49.535156 C 29.40625 50.035156 27.46875 49.773438 26.738281 49.804688 C 24.683594 49.898438 22.609375 49.988281 20.585938 49.609375 C 18.796875 49.277344 16.421875 48.449219 15.332031 46.863281 C 14.386719 45.476562 14.589844 43.652344 16.445312 43.386719 C 17.933594 43.175781 19.769531 43.894531 21.222656 44.191406 Z M 26.597656 45.308594 " fill-opacity="1" fill-rule="nonzero"/></g></g></g><g clip-path="url(#4ff3429939)"><g clip-path="url(#1739e9b768)"><g clip-path="url(#c9874b7ddb)"><path fill="#f4aeae" d="M 19.199219 41.351562 C 20.101562 41.765625 21.09375 41.921875 22.074219 42.078125 L 28.734375 43.132812 C 29.5625 43.265625 30.414062 43.394531 31.226562 43.1875 C 32.039062 42.984375 32.800781 42.355469 32.894531 41.523438 C 32.964844 40.878906 32.621094 40.246094 32.140625 39.8125 C 31.664062 39.378906 31.0625 39.109375 30.464844 38.863281 C 28.113281 37.875 25.703125 37.039062 23.292969 36.207031 C 22.277344 35.855469 21.242188 35.503906 20.167969 35.480469 C 19.09375 35.457031 17.953125 35.824219 17.296875 36.679688 C 15.941406 38.445312 17.550781 40.601562 19.199219 41.351562 Z M 19.199219 41.351562 " fill-opacity="1" fill-rule="nonzero"/></g></g></g><g clip-path="url(#29e0490076)"><g clip-path="url(#142dfc5826)"><g clip-path="url(#857c8ab6a8)"><path fill="#f4aeae" d="M 29.308594 35.53125 C 30.175781 35.785156 31.074219 36.042969 31.964844 35.90625 C 32.855469 35.769531 33.738281 35.113281 33.816406 34.210938 C 33.882812 33.566406 33.519531 32.9375 33.027344 32.511719 C 32.535156 32.085938 31.921875 31.832031 31.320312 31.582031 L 23.265625 28.246094 C 22.316406 27.851562 21.285156 27.453125 20.296875 27.710938 C 17.757812 28.382812 18.320312 31.730469 20.183594 32.777344 C 22.75 34.234375 26.472656 34.695312 29.308594 35.53125 Z M 29.308594 35.53125 " fill-opacity="1" fill-rule="nonzero"/></g></g></g></svg>