<svg xmlns="http://www.w3.org/2000/svg" xmlns:xlink="http://www.w3.org/1999/xlink" width="142" zoomAndPan="magnify" viewBox="0 0 106.5 104.999996" height="140" preserveAspectRatio="xMidYMid meet" version="1.0"><defs><clipPath id="bbeccc5f04"><path d="M 8 19 L 93 19 L 93 93 L 8 93 Z M 8 19 " clip-rule="nonzero"/></clipPath><clipPath id="24f053ab3b"><path d="M 78.28125 0.726562 L 105.378906 75.867188 L 27.429688 103.976562 L 0.332031 28.839844 Z M 78.28125 0.726562 " clip-rule="nonzero"/></clipPath><clipPath id="d58f5e20e1"><path d="M 78.28125 0.726562 L 105.378906 75.867188 L 27.429688 103.976562 L 0.332031 28.839844 Z M 78.28125 0.726562 " clip-rule="nonzero"/></clipPath><clipPath id="e087680d82"><path d="M 71 69 L 89 69 L 89 81 L 71 81 Z M 71 69 " clip-rule="nonzero"/></clipPath><clipPath id="a9d057bb4f"><path d="M 85.929688 47.550781 L 102.535156 69.625 L 80.460938 86.226562 L 63.859375 64.15625 Z M 85.929688 47.550781 " clip-rule="nonzero"/></clipPath><clipPath id="1ea4d7e08c"><path d="M 85.929688 47.550781 L 102.535156 69.625 L 80.460938 86.226562 L 63.859375 64.15625 Z M 85.929688 47.550781 " clip-rule="nonzero"/></clipPath><clipPath id="d732787f19"><path d="M 75 60 L 94 60 L 94 74 L 75 74 Z M 75 60 " clip-rule="nonzero"/></clipPath><clipPath id="5d2e0a9855"><path d="M 85.929688 47.550781 L 102.535156 69.625 L 80.460938 86.226562 L 63.859375 64.15625 Z M 85.929688 47.550781 " clip-rule="nonzero"/></clipPath><clipPath id="0601f42528"><path d="M 85.929688 47.550781 L 102.535156 69.625 L 80.460938 86.226562 L 63.859375 64.15625 Z M 85.929688 47.550781 " clip-rule="nonzero"/></clipPath><clipPath id="863a2b897a"><path d="M 80 52 L 97 52 L 97 66 L 80 66 Z M 80 52 " clip-rule="nonzero"/></clipPath><clipPath id="e75931130d"><path d="M 85.929688 47.550781 L 102.535156 69.625 L 80.460938 86.226562 L 63.859375 64.15625 Z M 85.929688 47.550781 " clip-rule="nonzero"/></clipPath><clipPath id="77c5ca0a38"><path d="M 85.929688 47.550781 L 102.535156 69.625 L 80.460938 86.226562 L 63.859375 64.15625 Z M 85.929688 47.550781 " clip-rule="nonzero"/></clipPath><clipPath id="5f3f9960ff"><path d="M 32.070312 32.792969 L 71.636719 32.792969 L 71.636719 72.359375 L 32.070312 72.359375 Z M 32.070312 32.792969 " clip-rule="nonzero"/></clipPath></defs><g clip-path="url(#bbeccc5f04)"><g clip-path="url(#24f053ab3b)"><g clip-path="url(#d58f5e20e1)"><path fill="#309db0" d="M 68.414062 88.816406 C 75.613281 84.554688 80.851562 77.816406 85.105469 70.730469 C 88.855469 64.476562 91.757812 57.617188 92.539062 50.316406 C 92.925781 46.777344 93.050781 42.898438 92.023438 39.46875 C 91.003906 36.058594 89.121094 32.917969 86.664062 30.339844 C 84.195312 27.710938 81.066406 25.636719 77.664062 24.460938 C 73.820312 23.117188 69.753906 23.0625 65.714844 22.925781 C 56.535156 22.628906 47.582031 20.324219 38.382812 19.964844 C 30.25 19.640625 21.652344 21.148438 15.371094 26.742188 C 9.382812 32.085938 7.726562 40.109375 8.964844 47.820312 C 10.410156 56.628906 15.160156 64.5625 21.109375 71.101562 C 24.082031 74.390625 27.378906 77.367188 30.796875 80.199219 C 34.183594 82.984375 37.621094 85.773438 41.265625 88.203125 C 44.566406 90.410156 48.132812 92.101562 52.109375 92.539062 C 55.886719 92.964844 59.753906 92.425781 63.34375 91.167969 C 65.132812 90.539062 66.816406 89.722656 68.414062 88.816406 " fill-opacity="1" fill-rule="nonzero"/></g></g></g><g clip-path="url(#e087680d82)"><g clip-path="url(#a9d057bb4f)"><g clip-path="url(#1ea4d7e08c)"><path fill="#f4aeae" d="M 85.113281 74.308594 C 86.484375 74.972656 87.996094 75.78125 88.453125 77.234375 C 88.65625 78.007812 88.605469 79.707031 87.753906 80.171875 C 86.988281 80.589844 84.824219 79.726562 83.972656 79.554688 C 81.570312 79.066406 79.144531 78.566406 76.914062 77.542969 C 74.9375 76.640625 72.429688 74.996094 71.632812 72.84375 C 70.9375 70.96875 71.699219 68.914062 73.921875 69.144531 C 75.710938 69.332031 77.625 70.695312 79.21875 71.460938 Z M 85.113281 74.308594 " fill-opacity="1" fill-rule="nonzero"/></g></g></g><g clip-path="url(#d732787f19)"><g clip-path="url(#5d2e0a9855)"><g clip-path="url(#0601f42528)"><path fill="#f4aeae" d="M 77.699219 67.589844 C 78.625 68.328125 79.726562 68.800781 80.816406 69.265625 L 88.214844 72.414062 C 89.132812 72.804688 90.082031 73.203125 91.082031 73.203125 C 92.078125 73.199219 93.144531 72.691406 93.492188 71.757812 C 93.761719 71.035156 93.546875 70.203125 93.117188 69.5625 C 92.6875 68.921875 92.074219 68.4375 91.453125 67.976562 C 89.019531 66.152344 86.472656 64.488281 83.929688 62.828125 C 82.851562 62.125 81.757812 61.417969 80.523438 61.078125 C 79.285156 60.742188 77.859375 60.835938 76.855469 61.632812 C 74.773438 63.285156 76.011719 66.246094 77.699219 67.589844 Z M 77.699219 67.589844 " fill-opacity="1" fill-rule="nonzero"/></g></g></g><g clip-path="url(#863a2b897a)"><g clip-path="url(#e75931130d)"><g clip-path="url(#77c5ca0a38)"><path fill="#f4aeae" d="M 91.082031 63.785156 C 92.007812 64.332031 92.976562 64.894531 94.046875 64.992188 C 95.117188 65.089844 96.324219 64.585938 96.679688 63.566406 C 96.941406 62.839844 96.703125 62.007812 96.257812 61.375 C 95.8125 60.738281 95.175781 60.265625 94.554688 59.804688 L 86.207031 53.609375 C 85.21875 52.878906 84.140625 52.117188 82.921875 52.132812 C 79.792969 52.171875 79.472656 56.207031 81.328125 57.960938 C 83.871094 60.386719 88.042969 62 91.082031 63.785156 Z M 91.082031 63.785156 " fill-opacity="1" fill-rule="nonzero"/></g></g></g><g clip-path="url(#5f3f9960ff)"><path fill="#ffffff" d="M 51.691406 70.46875 C 41.734375 70.46875 33.636719 62.367188 33.636719 52.414062 C 33.636719 42.457031 41.734375 34.359375 51.691406 34.359375 C 61.648438 34.359375 69.746094 42.457031 69.746094 52.414062 C 69.746094 62.367188 61.648438 70.46875 51.691406 70.46875 Z M 69.769531 44.777344 C 68.777344 42.441406 67.363281 40.34375 65.5625 38.539062 C 63.761719 36.738281 61.664062 35.324219 59.328125 34.335938 C 56.910156 33.3125 54.339844 32.792969 51.691406 32.792969 C 49.042969 32.792969 46.472656 33.3125 44.054688 34.335938 C 41.71875 35.324219 39.621094 36.738281 37.816406 38.539062 C 36.015625 40.34375 34.601562 42.441406 33.613281 44.777344 C 32.589844 47.195312 32.070312 49.765625 32.070312 52.414062 C 32.070312 55.0625 32.589844 57.628906 33.613281 60.050781 C 34.601562 62.386719 36.015625 64.484375 37.816406 66.285156 C 39.621094 68.085938 41.71875 69.5 44.054688 70.488281 C 46.472656 71.511719 49.042969 72.03125 51.691406 72.03125 C 54.339844 72.03125 56.910156 71.511719 59.328125 70.488281 C 61.664062 69.5 63.761719 68.085938 65.5625 66.285156 C 67.363281 64.484375 68.777344 62.386719 69.769531 60.050781 C 70.789062 57.628906 71.308594 55.0625 71.308594 52.414062 C 71.308594 49.765625 70.789062 47.195312 69.769531 44.777344 " fill-opacity="1" fill-rule="nonzero"/></g><path fill="#ffffff" d="M 61.09375 59.035156 L 52.472656 52.039062 L 52.472656 42.761719 C 52.472656 42.332031 52.121094 41.980469 51.691406 41.980469 C 51.257812 41.980469 50.910156 42.332031 50.910156 42.761719 L 50.910156 52.414062 C 50.910156 52.648438 51.015625 52.871094 51.199219 53.019531 L 60.109375 60.25 C 60.253906 60.367188 60.429688 60.425781 60.601562 60.425781 C 60.828125 60.425781 61.054688 60.324219 61.207031 60.136719 C 61.480469 59.800781 61.429688 59.308594 61.09375 59.035156 " fill-opacity="1" fill-rule="nonzero"/></svg>